<?xml version="1.0" encoding="UTF-8"?>
<!DOCTYPE svg PUBLIC "-//W3C//DTD SVG 1.1//EN" "http://www.w3.org/Graphics/SVG/1.1/DTD/svg11.dtd">
<svg xmlns="http://www.w3.org/2000/svg" version="1.1" width="252px" height="286px" style="shape-rendering:geometricPrecision; text-rendering:geometricPrecision; image-rendering:optimizeQuality; fill-rule:evenodd; clip-rule:evenodd" xmlns:xlink="http://www.w3.org/1999/xlink">
<g><path style="opacity:1" fill="#2e1715" d="M 105.5,6.5 C 152.833,6.5 200.167,6.5 247.5,6.5C 247.5,7.5 247.5,8.5 247.5,9.5C 246.833,82.1667 246.167,154.833 245.5,227.5C 245.5,154.5 245.5,81.5 245.5,8.5C 198.833,7.83333 152.167,7.16667 105.5,6.5 Z"/></g>
<g><path style="opacity:1" fill="#d02025" d="M 245.5,8.5 C 245.5,81.5 245.5,154.5 245.5,227.5C 244.067,229.558 243.4,231.892 243.5,234.5C 242.5,234.5 241.5,234.5 240.5,234.5C 238.234,230.564 235.234,227.231 231.5,224.5C 229.57,220.9 226.903,217.9 223.5,215.5C 221.906,212.236 219.573,209.569 216.5,207.5C 214.57,203.9 211.903,200.9 208.5,198.5C 206.234,194.564 203.234,191.231 199.5,188.5C 197.57,184.9 194.903,181.9 191.5,179.5C 189.234,175.564 186.234,172.231 182.5,169.5C 180.57,165.9 177.903,162.9 174.5,160.5C 172.57,156.9 169.903,153.9 166.5,151.5C 164.57,147.9 161.903,144.9 158.5,142.5C 156.234,138.564 153.234,135.231 149.5,132.5C 147.57,128.9 144.903,125.9 141.5,123.5C 139.57,119.9 136.903,116.9 133.5,114.5C 131.588,111.081 129.088,108.081 126,105.5C 121.967,109.033 118.467,113.033 115.5,117.5C 111.434,120.563 108.101,124.229 105.5,128.5C 90.1995,144.637 75.0329,160.97 60,177.5C 57.59,180.397 55.4233,183.397 53.5,186.5C 43.766,195.897 34.766,205.897 26.5,216.5C 22.4342,219.563 19.1009,223.229 16.5,227.5C 14.5193,229.144 12.5193,230.81 10.5,232.5C 9.06517,231.053 8.06517,229.386 7.5,227.5C 7.5,154.5 7.5,81.5 7.5,8.5C 86.8333,8.5 166.167,8.5 245.5,8.5 Z"/></g>
<g><path style="opacity:1" fill="#1e1616" d="M 105.5,6.5 C 152.167,7.16667 198.833,7.83333 245.5,8.5C 166.167,8.5 86.8333,8.5 7.5,8.5C 7.5,81.5 7.5,154.5 7.5,227.5C 7.5,228.833 7.5,230.167 7.5,231.5C 6.73209,230.737 6.23209,229.737 6,228.5C 5.5,154.501 5.33334,80.5008 5.5,6.5C 38.8333,6.5 72.1667,6.5 105.5,6.5 Z"/></g>
<g><path style="opacity:1" fill="#f2eb18" d="M 126.5,77.5 C 126.59,74.8478 125.924,72.5145 124.5,70.5C 123.5,66.5 122.5,62.5 121.5,58.5C 116.762,57.3017 112.095,55.8017 107.5,54C 105.445,53.3128 103.779,52.1461 102.5,50.5C 108.333,47.7772 114.333,45.4438 120.5,43.5C 122.441,36.6748 124.775,30.0082 127.5,23.5C 129.699,30.2623 132.199,36.929 135,43.5C 140.964,45.5428 146.797,47.8761 152.5,50.5C 146.473,53.1816 140.473,55.8483 134.5,58.5C 132.168,65.1612 129.835,71.8278 127.5,78.5C 126.893,78.3764 126.56,78.0431 126.5,77.5 Z"/></g>
<g><path style="opacity:1" fill="#f3ec17" d="M 51.5,104.5 C 50.0762,106.515 49.4095,108.848 49.5,111.5C 48.8333,111.5 48.1667,111.5 47.5,111.5C 45.9783,105.415 44.145,99.4154 42,93.5C 35.9073,90.2752 29.7406,87.2752 23.5,84.5C 25.5771,82.9182 27.9104,81.9182 30.5,81.5C 34.2073,81.2085 37.7073,80.2085 41,78.5C 41.3242,80.5689 42.1575,80.9023 43.5,79.5C 43.4739,74.8776 44.1406,70.2109 45.5,65.5C 45.8976,62.6601 46.7309,59.9934 48,57.5C 51.1101,63.492 53.4435,69.8253 55,76.5C 61.055,79.391 67.2217,82.0577 73.5,84.5C 67.4256,86.7003 61.4256,89.2003 55.5,92C 53.6654,96.0037 52.3321,100.17 51.5,104.5 Z"/></g>
<g><path style="opacity:1" fill="#df7620" d="M 124.5,70.5 C 125.924,72.5145 126.59,74.8478 126.5,77.5C 125.076,75.4855 124.41,73.1522 124.5,70.5 Z"/></g>
<g><path style="opacity:1" fill="#f2ea18" d="M 233.5,83.5 C 231.146,85.5253 228.479,87.192 225.5,88.5C 221.465,89.1188 217.965,90.7854 215,93.5C 213.153,99.8917 211.153,106.225 209,112.5C 206.686,105.756 204.186,99.0895 201.5,92.5C 195.565,90.2479 189.732,87.9145 184,85.5C 183.544,84.2559 184.044,83.4226 185.5,83C 191.51,81.5871 197.177,79.4205 202.5,76.5C 203.899,69.6384 205.899,62.9718 208.5,56.5C 211.436,63.3082 213.769,70.3082 215.5,77.5C 221.245,80.0816 227.245,82.0816 233.5,83.5 Z"/></g>
<g><path style="opacity:1" fill="#eecf1b" d="M 45.5,65.5 C 44.1406,70.2109 43.4739,74.8776 43.5,79.5C 42.1575,80.9023 41.3242,80.5689 41,78.5C 37.7073,80.2085 34.2073,81.2085 30.5,81.5C 34.1834,80.0422 37.85,78.3755 41.5,76.5C 42.4662,72.5926 43.7995,68.926 45.5,65.5 Z"/></g>
<g><path style="opacity:1" fill="#dd6723" d="M 233.5,83.5 C 235.549,83.7058 235.883,84.5391 234.5,86C 231.647,87.4301 228.647,88.2634 225.5,88.5C 228.479,87.192 231.146,85.5253 233.5,83.5 Z"/></g>
<g><path style="opacity:1" fill="#e07621" d="M 51.5,104.5 C 51.5905,107.152 50.9238,109.485 49.5,111.5C 49.4095,108.848 50.0762,106.515 51.5,104.5 Z"/></g>
<g><path style="opacity:1" fill="#dc2228" d="M 8.5,9.5 C 9.87344,9.34332 11.2068,9.50999 12.5,10C 10.998,82.0948 9.83135,154.262 9,226.5C 8.5,154.167 8.33334,81.8341 8.5,9.5 Z"/></g>
<g><path style="opacity:1" fill="#e5981d" d="M 47.5,111.5 C 48.1667,111.5 48.8333,111.5 49.5,111.5C 48.8333,114.167 48.1667,114.167 47.5,111.5 Z"/></g>
<g><path style="opacity:1" fill="#222e17" d="M 133.5,114.5 C 130.853,112.189 128.186,109.856 125.5,107.5C 122.506,111.161 119.173,114.494 115.5,117.5C 118.467,113.033 121.967,109.033 126,105.5C 129.088,108.081 131.588,111.081 133.5,114.5 Z"/></g>
<g><path style="opacity:1" fill="#203019" d="M 133.5,114.5 C 136.903,116.9 139.57,119.9 141.5,123.5C 138.097,121.1 135.43,118.1 133.5,114.5 Z"/></g>
<g><path style="opacity:1" fill="#0e8744" d="M 133.5,114.5 C 135.43,118.1 138.097,121.1 141.5,123.5C 143.43,127.1 146.097,130.1 149.5,132.5C 151.766,136.436 154.766,139.769 158.5,142.5C 160.43,146.1 163.097,149.1 166.5,151.5C 168.43,155.1 171.097,158.1 174.5,160.5C 176.43,164.1 179.097,167.1 182.5,169.5C 184.766,173.436 187.766,176.769 191.5,179.5C 193.43,183.1 196.097,186.1 199.5,188.5C 201.766,192.436 204.766,195.769 208.5,198.5C 210.43,202.1 213.097,205.1 216.5,207.5C 218.094,210.764 220.427,213.431 223.5,215.5C 225.43,219.1 228.097,222.1 231.5,224.5C 233.766,228.436 236.766,231.769 240.5,234.5C 241.412,235.738 241.579,237.072 241,238.5C 230.995,250.754 218.495,259.42 203.5,264.5C 201.547,260.88 198.881,257.88 195.5,255.5C 192.179,250.848 188.513,246.515 184.5,242.5C 175.47,231.808 166.47,221.142 157.5,210.5C 155.167,207.997 153.001,205.331 151,202.5C 149.871,200.859 148.371,199.859 146.5,199.5C 145.345,195.668 143.012,192.668 139.5,190.5C 137.206,186.873 134.54,183.539 131.5,180.5C 127.736,173.845 124.402,174.179 121.5,181.5C 118.608,184.271 115.942,187.271 113.5,190.5C 110.529,193.808 107.529,197.141 104.5,200.5C 101.529,203.808 98.5285,207.141 95.5,210.5C 85.823,220.845 76.4897,231.512 67.5,242.5C 63.4874,246.515 59.8207,250.848 56.5,255.5C 53.6082,258.271 50.9416,261.271 48.5,264.5C 32.2463,259.216 19.5796,249.382 10.5,235C 13.093,232.914 15.093,230.414 16.5,227.5C 20.5658,224.437 23.8991,220.771 26.5,216.5C 36.234,207.103 45.234,197.103 53.5,186.5C 71.7685,167.93 89.1018,148.597 105.5,128.5C 109.566,125.437 112.899,121.771 115.5,117.5C 119.173,114.494 122.506,111.161 125.5,107.5C 128.186,109.856 130.853,112.189 133.5,114.5 Z"/></g>
<g><path style="opacity:1" fill="#212d17" d="M 115.5,117.5 C 112.899,121.771 109.566,125.437 105.5,128.5C 108.101,124.229 111.434,120.563 115.5,117.5 Z"/></g>
<g><path style="opacity:1" fill="#203119" d="M 141.5,123.5 C 144.903,125.9 147.57,128.9 149.5,132.5C 146.097,130.1 143.43,127.1 141.5,123.5 Z"/></g>
<g><path style="opacity:1" fill="#203118" d="M 149.5,132.5 C 153.234,135.231 156.234,138.564 158.5,142.5C 154.766,139.769 151.766,136.436 149.5,132.5 Z"/></g>
<g><path style="opacity:1" fill="#222f17" d="M 158.5,142.5 C 161.903,144.9 164.57,147.9 166.5,151.5C 163.097,149.1 160.43,146.1 158.5,142.5 Z"/></g>
<g><path style="opacity:1" fill="#212e17" d="M 105.5,128.5 C 89.1018,148.597 71.7685,167.93 53.5,186.5C 55.4233,183.397 57.59,180.397 60,177.5C 75.0329,160.97 90.1995,144.637 105.5,128.5 Z"/></g>
<g><path style="opacity:1" fill="#1f2f18" d="M 166.5,151.5 C 169.903,153.9 172.57,156.9 174.5,160.5C 171.097,158.1 168.43,155.1 166.5,151.5 Z"/></g>
<g><path style="opacity:1" fill="#1f3018" d="M 174.5,160.5 C 177.903,162.9 180.57,165.9 182.5,169.5C 179.097,167.1 176.43,164.1 174.5,160.5 Z"/></g>
<g><path style="opacity:1" fill="#223017" d="M 182.5,169.5 C 186.234,172.231 189.234,175.564 191.5,179.5C 187.766,176.769 184.766,173.436 182.5,169.5 Z"/></g>
<g><path style="opacity:1" fill="#d7e1e5" d="M 131.5,180.5 C 128.272,181.414 124.939,181.747 121.5,181.5C 124.402,174.179 127.736,173.845 131.5,180.5 Z"/></g>
<g><path style="opacity:1" fill="#222e16" d="M 191.5,179.5 C 194.903,181.9 197.57,184.9 199.5,188.5C 196.097,186.1 193.43,183.1 191.5,179.5 Z"/></g>
<g><path style="opacity:1" fill="#344da2" d="M 131.5,180.5 C 134.54,183.539 137.206,186.873 139.5,190.5C 134.27,195.851 127.937,197.685 120.5,196C 117.405,195.065 115.071,193.231 113.5,190.5C 115.942,187.271 118.608,184.271 121.5,181.5C 124.939,181.747 128.272,181.414 131.5,180.5 Z"/></g>
<g><path style="opacity:1" fill="#252c16" d="M 199.5,188.5 C 203.234,191.231 206.234,194.564 208.5,198.5C 204.766,195.769 201.766,192.436 199.5,188.5 Z"/></g>
<g><path style="opacity:1" fill="#f4f6f8" d="M 113.5,190.5 C 115.071,193.231 117.405,195.065 120.5,196C 127.937,197.685 134.27,195.851 139.5,190.5C 143.012,192.668 145.345,195.668 146.5,199.5C 142.002,203.83 137.335,207.997 132.5,212C 126.903,213.091 121.57,212.424 116.5,210C 112.606,206.596 108.606,203.429 104.5,200.5C 107.529,197.141 110.529,193.808 113.5,190.5 Z"/></g>
<g><path style="opacity:1" fill="#203118" d="M 53.5,186.5 C 45.234,197.103 36.234,207.103 26.5,216.5C 34.766,205.897 43.766,195.897 53.5,186.5 Z"/></g>
<g><path style="opacity:1" fill="#262a15" d="M 208.5,198.5 C 211.903,200.9 214.57,203.9 216.5,207.5C 213.097,205.1 210.43,202.1 208.5,198.5 Z"/></g>
<g><path style="opacity:1" fill="#252b16" d="M 216.5,207.5 C 219.573,209.569 221.906,212.236 223.5,215.5C 220.427,213.431 218.094,210.764 216.5,207.5 Z"/></g>
<g><path style="opacity:1" fill="#f4f6f8" d="M 95.5,210.5 C 104.609,213.088 112.276,218.254 118.5,226C 122.711,227.534 127.044,227.867 131.5,227C 137.719,223.05 143.386,218.383 148.5,213C 151.579,212.027 154.579,211.194 157.5,210.5C 166.47,221.142 175.47,231.808 184.5,242.5C 182.143,242.663 179.81,242.497 177.5,242C 173.12,237.952 168.454,234.285 163.5,231C 156.965,227.442 150.631,227.775 144.5,232C 139.833,235.667 135.167,239.333 130.5,243C 126.833,243.667 123.167,243.667 119.5,243C 114.245,239.749 109.578,235.749 105.5,231C 100.43,228.576 95.0969,227.909 89.5,229C 84.8663,232.632 80.533,236.632 76.5,241C 73.6492,242.289 70.6492,242.789 67.5,242.5C 76.4897,231.512 85.823,220.845 95.5,210.5 Z"/></g>
<g><path style="opacity:1" fill="#344da2" d="M 146.5,199.5 C 148.371,199.859 149.871,200.859 151,202.5C 153.001,205.331 155.167,207.997 157.5,210.5C 154.579,211.194 151.579,212.027 148.5,213C 143.386,218.383 137.719,223.05 131.5,227C 127.044,227.867 122.711,227.534 118.5,226C 112.276,218.254 104.609,213.088 95.5,210.5C 98.5285,207.141 101.529,203.808 104.5,200.5C 108.606,203.429 112.606,206.596 116.5,210C 121.57,212.424 126.903,213.091 132.5,212C 137.335,207.997 142.002,203.83 146.5,199.5 Z"/></g>
<g><path style="opacity:1" fill="#223019" d="M 223.5,215.5 C 226.903,217.9 229.57,220.9 231.5,224.5C 228.097,222.1 225.43,219.1 223.5,215.5 Z"/></g>
<g><path style="opacity:1" fill="#222f17" d="M 26.5,216.5 C 23.8991,220.771 20.5658,224.437 16.5,227.5C 19.1009,223.229 22.4342,219.563 26.5,216.5 Z"/></g>
<g><path style="opacity:1" fill="#242e17" d="M 231.5,224.5 C 235.234,227.231 238.234,230.564 240.5,234.5C 236.766,231.769 233.766,228.436 231.5,224.5 Z"/></g>
<g><path style="opacity:1" fill="#141515" d="M 247.5,9.5 C 247.667,82.8341 247.5,156.167 247,229.5C 243.943,238.445 238.777,245.945 231.5,252C 213.312,264.29 193.312,272.29 171.5,276C 134.133,281.975 97.1327,280.308 60.5,271C 42.291,265.816 26.4577,256.65 13,243.5C 10.3441,239.856 8.51074,235.856 7.5,231.5C 7.5,230.167 7.5,228.833 7.5,227.5C 8.06517,229.386 9.06517,231.053 10.5,232.5C 12.5193,230.81 14.5193,229.144 16.5,227.5C 15.093,230.414 13.093,232.914 10.5,235C 19.5796,249.382 32.2463,259.216 48.5,264.5C 57.4084,268.396 66.7418,271.063 76.5,272.5C 92.139,276.285 108.139,277.952 124.5,277.5C 141.77,277.978 158.77,276.312 175.5,272.5C 185.04,270.449 194.373,267.783 203.5,264.5C 218.495,259.42 230.995,250.754 241,238.5C 241.579,237.072 241.412,235.738 240.5,234.5C 241.5,234.5 242.5,234.5 243.5,234.5C 243.4,231.892 244.067,229.558 245.5,227.5C 246.167,154.833 246.833,82.1667 247.5,9.5 Z"/></g>
<g><path style="opacity:1" fill="#354da0" d="M 175.5,272.5 C 158.77,276.312 141.77,277.978 124.5,277.5C 108.139,277.952 92.139,276.285 76.5,272.5C 88.4515,255.794 101.118,255.294 114.5,271C 119.094,275.072 124.428,276.406 130.5,275C 136.123,271.045 141.457,266.712 146.5,262C 158.836,257.782 168.502,261.282 175.5,272.5 Z"/></g>
<g><path style="opacity:1" fill="#354ea2" d="M 184.5,242.5 C 188.513,246.515 192.179,250.848 195.5,255.5C 190.595,258.231 185.262,259.064 179.5,258C 175.2,254.702 171.2,251.035 167.5,247C 162.262,243.734 156.595,242.734 150.5,244C 146.167,247.667 141.833,251.333 137.5,255C 131.187,259.957 124.52,260.624 117.5,257C 113.422,252.251 108.755,248.251 103.5,245C 98.8609,243.068 94.1942,243.068 89.5,245C 83.8333,249.333 78.1667,253.667 72.5,258C 68.8333,258.667 65.1667,258.667 61.5,258C 59.256,257.95 57.5893,257.117 56.5,255.5C 59.8207,250.848 63.4874,246.515 67.5,242.5C 70.6492,242.789 73.6492,242.289 76.5,241C 80.533,236.632 84.8663,232.632 89.5,229C 95.0969,227.909 100.43,228.576 105.5,231C 109.578,235.749 114.245,239.749 119.5,243C 123.167,243.667 126.833,243.667 130.5,243C 135.167,239.333 139.833,235.667 144.5,232C 150.631,227.775 156.965,227.442 163.5,231C 168.454,234.285 173.12,237.952 177.5,242C 179.81,242.497 182.143,242.663 184.5,242.5 Z"/></g>
<g><path style="opacity:1" fill="#f6f7f9" d="M 195.5,255.5 C 198.881,257.88 201.547,260.88 203.5,264.5C 194.373,267.783 185.04,270.449 175.5,272.5C 168.502,261.282 158.836,257.782 146.5,262C 141.457,266.712 136.123,271.045 130.5,275C 124.428,276.406 119.094,275.072 114.5,271C 101.118,255.294 88.4515,255.794 76.5,272.5C 66.7418,271.063 57.4084,268.396 48.5,264.5C 50.9416,261.271 53.6082,258.271 56.5,255.5C 57.5893,257.117 59.256,257.95 61.5,258C 65.1667,258.667 68.8333,258.667 72.5,258C 78.1667,253.667 83.8333,249.333 89.5,245C 94.1942,243.068 98.8609,243.068 103.5,245C 108.755,248.251 113.422,252.251 117.5,257C 124.52,260.624 131.187,259.957 137.5,255C 141.833,251.333 146.167,247.667 150.5,244C 156.595,242.734 162.262,243.734 167.5,247C 171.2,251.035 175.2,254.702 179.5,258C 185.262,259.064 190.595,258.231 195.5,255.5 Z"/></g>
</svg>
